name rise32.9588peak41.5061fall63.4684.mot
datacolumns 19
datarows 32
range 17.67326300000000 17.72493200000000
endheader
time	ground_force1_vx	ground_force1_vy	ground_force1_vz	ground_force1_px	ground_force1_py	ground_force1_pz	ground_force2_vx	ground_force2_vy	ground_force2_vz	ground_force2_px	ground_force2_py	ground_force2_pz	ground_torque1_x	ground_torque1_y	ground_torque1_z	ground_torque2_x	ground_torque2_y	ground_torque2_z	
17.67326300000000	-41.30758500000000	821.58307100000002	55.82957300000000	0.08488200000000	0.00000000000000	0.12283100000000	0.00000000000000	0.00000000000000	0.00000000000000	0.00000000000000	0.00000000000000	0.00000000000000	0.00000000000000	18.51371300000000	0.00000000000000	0.00000000000000	0.00000000000000	0.00000000000000	
17.67493600000000	-41.82931900000000	820.04214300000001	55.72421800000000	0.08406500000000	0.00000000000000	0.12269200000000	0.00000000000000	0.00000000000000	0.00000000000000	0.00000000000000	0.00000000000000	0.00000000000000	0.00000000000000	18.49960900000000	0.00000000000000	0.00000000000000	0.00000000000000	0.00000000000000	
17.67660500000000	-42.36382200000000	818.37717599999996	55.59850400000000	0.08325000000000	0.00000000000000	0.12254900000000	-0.91251600000000	3.80367400000000	0.98187000000000	0.00000000000000	0.00000000000000	0.00000000000000	0.00000000000000	18.48650000000000	0.00000000000000	0.00000000000000	0.30710700000000	0.00000000000000	
17.67826700000000	-42.91150600000000	816.58677699999998	55.45203000000000	0.08243600000000	0.00000000000000	0.12240300000000	-1.44463400000000	7.33647100000000	1.70106100000000	0.00000000000000	0.00000000000000	0.00000000000000	0.00000000000000	18.47452100000000	0.00000000000000	0.00000000000000	0.54526700000000	0.00000000000000	
17.67993700000000	-43.47273200000000	814.66955499999995	55.28442400000000	0.08162400000000	0.00000000000000	0.12225500000000	-2.04236000000000	11.60550700000000	2.54182100000000	0.00000000000000	0.00000000000000	0.00000000000000	0.00000000000000	18.46380000000000	0.00000000000000	0.00000000000000	0.82605800000000	0.00000000000000	
17.68160300000000	-44.04780200000000	812.62411599999996	55.09534200000000	0.08081400000000	0.00000000000000	0.12210300000000	-2.68606800000000	16.56548600000000	3.48673000000000	0.00000000000000	0.00000000000000	0.00000000000000	0.00000000000000	18.45445300000000	0.00000000000000	0.00000000000000	1.14437500000000	0.00000000000000	
17.68327000000000	-44.63695700000000	810.44905800000004	54.88447200000000	0.08000500000000	0.00000000000000	0.12194800000000	-3.35149500000000	22.13858900000000	4.51182200000000	0.00000000000000	0.00000000000000	0.00000000000000	0.00000000000000	18.44658800000000	0.00000000000000	0.00000000000000	1.49292500000000	0.00000000000000	
17.68493700000000	-45.24037200000000	808.14297599999998	54.65153600000000	0.07919800000000	0.00000000000000	0.12179000000000	-4.01127900000000	28.22032400000000	5.58816400000000	0.31515900000000	0.00000000000000	-0.05913800000000	0.00000000000000	18.44030200000000	0.00000000000000	0.00000000000000	3.38666200000000	0.00000000000000	
17.68660400000000	-45.85815300000000	805.70445700000005	54.39628600000000	0.07839300000000	0.00000000000000	0.12162900000000	-4.63688800000000	34.68826200000000	6.68401700000000	0.31936600000000	0.00000000000000	-0.05981000000000	0.00000000000000	18.43568000000000	0.00000000000000	0.00000000000000	4.10107400000000	0.00000000000000	
17.68827000000000	-46.49033300000000	803.13207699999998	54.11850800000000	0.07759000000000	0.00000000000000	0.12146600000000	-5.20069700000000	41.41251100000000	7.76727000000000	0.32315500000000	0.00000000000000	-0.06042300000000	0.00000000000000	18.43279300000000	0.00000000000000	0.00000000000000	4.82159300000000	0.00000000000000	
17.68993700000000	-47.13686800000000	800.42440699999997	53.81802200000000	0.07678900000000	0.00000000000000	0.12129900000000	-5.67792100000000	48.26644400000000	8.80782800000000	0.32658800000000	0.00000000000000	-0.06098700000000	0.00000000000000	18.43170100000000	0.00000000000000	0.00000000000000	5.52942100000000	0.00000000000000	
17.69160400000000	-47.79763600000000	797.58001100000001	53.49468400000000	0.07598900000000	0.00000000000000	0.12112900000000	-6.04818300000000	55.13623700000000	9.77964500000000	0.32971800000000	0.00000000000000	-0.06150800000000	0.00000000000000	18.43244600000000	0.00000000000000	0.00000000000000	6.20785800000000	0.00000000000000	
17.69326900000000	-48.47242700000000	794.59744499999999	53.14838400000000	0.07519200000000	0.00000000000000	0.12095600000000	-6.29653500000000	61.92822800000000	10.66218100000000	0.33258500000000	0.00000000000000	-0.06199400000000	0.00000000000000	18.43505900000000	0.00000000000000	0.00000000000000	6.84329600000000	0.00000000000000	
17.69493500000000	-49.16095100000000	791.47526300000004	52.77904800000000	0.07439700000000	0.00000000000000	0.12078100000000	-6.41391000000000	68.57357100000000	11.44121800000000	0.33522400000000	0.00000000000000	-0.06244900000000	0.00000000000000	18.43955100000000	0.00000000000000	0.00000000000000	7.42582400000000	0.00000000000000	
17.69660200000000	-49.86282600000000	788.21201699999995	52.38664000000000	0.07360400000000	0.00000000000000	0.12060300000000	-6.39703100000000	75.03013100000000	12.10902200000000	0.33766300000000	0.00000000000000	-0.06287900000000	0.00000000000000	18.44591800000000	0.00000000000000	0.00000000000000	7.94943400000000	0.00000000000000	
17.69826500000000	-50.57757700000000	784.80625899999995	51.97115800000000	0.07281400000000	0.00000000000000	0.12042200000000	-6.24785200000000	81.28186700000001	12.66396000000000	0.33992500000000	0.00000000000000	-0.06328500000000	0.00000000000000	18.45413800000000	0.00000000000000	0.00000000000000	8.41188300000000	0.00000000000000	
17.69992900000000	-51.30464100000000	781.25654699999996	51.53264200000000	0.07202600000000	0.00000000000000	0.12023800000000	-5.97268000000000	87.33617700000001	13.10967300000000	0.34203100000000	0.00000000000000	-0.06367200000000	0.00000000000000	18.46417100000000	0.00000000000000	0.00000000000000	8.81425300000000	0.00000000000000	
17.70160200000000	-52.04335400000000	777.56144700000004	51.07116400000000	0.07124100000000	0.00000000000000	0.12005200000000	-5.58108000000000	93.21977099999999	13.45395900000000	0.34399600000000	0.00000000000000	-0.06404200000000	0.00000000000000	18.47595800000000	0.00000000000000	0.00000000000000	9.16032700000000	0.00000000000000	
17.70326400000000	-52.79295900000000	773.71953900000005	50.58683900000000	0.07045900000000	0.00000000000000	0.11986300000000	-5.08471200000000	98.97368100000000	13.70751700000000	0.34583600000000	0.00000000000000	-0.06439700000000	0.00000000000000	18.48942000000000	0.00000000000000	0.00000000000000	9.45584300000000	0.00000000000000	
17.70493300000000	-53.55259900000000	769.72942200000000	50.07981800000000	0.06967900000000	0.00000000000000	0.11967100000000	-4.49619500000000	104.64795200000000	13.88266300000000	0.34756100000000	0.00000000000000	-0.06473900000000	0.00000000000000	18.50445900000000	0.00000000000000	0.00000000000000	9.70771400000000	0.00000000000000	
17.70660200000000	-54.32132000000000	765.58971699999995	49.55029100000000	0.06890300000000	0.00000000000000	0.11947700000000	-3.82809000000000	110.29652800000000	13.99214200000000	0.34918400000000	0.00000000000000	-0.06506900000000	0.00000000000000	18.52095600000000	0.00000000000000	0.00000000000000	9.92329800000000	0.00000000000000	
17.70826600000000	-55.09806700000000	761.29907800000001	48.99848900000000	0.06813100000000	0.00000000000000	0.11928100000000	-3.09206600000000	115.97267700000000	14.04810800000000	0.35071100000000	0.00000000000000	-0.06538800000000	0.00000000000000	18.53877100000000	0.00000000000000	0.00000000000000	10.10974600000000	0.00000000000000	
17.70993000000000	-55.88168800000000	756.85619199999996	48.42467900000000	0.06736100000000	0.00000000000000	0.11908200000000	-2.29827500000000	121.72525300000000	14.06132700000000	0.35215100000000	0.00000000000000	-0.06569800000000	0.00000000000000	18.55774500000000	0.00000000000000	0.00000000000000	10.27348300000000	0.00000000000000	
17.71160100000000	-56.67093000000000	752.25979099999995	47.82916900000000	0.06659500000000	0.00000000000000	0.11888200000000	-1.45496200000000	127.59590600000000	14.04061800000000	0.35350900000000	0.00000000000000	-0.06600000000000	0.00000000000000	18.57769600000000	0.00000000000000	0.00000000000000	10.41983800000000	0.00000000000000	
17.71326800000000	-57.46444400000000	747.50865699999997	47.21230700000000	0.06583200000000	0.00000000000000	0.11867900000000	-0.56828100000000	133.61731700000001	13.99254800000000	0.35479300000000	0.00000000000000	-0.06629500000000	0.00000000000000	18.59842200000000	0.00000000000000	0.00000000000000	10.55281300000000	0.00000000000000	
17.71493700000000	-58.26078400000000	742.60163399999999	46.57448000000000	0.06507300000000	0.00000000000000	0.11847300000000	0.35769300000000	139.81237600000000	13.92134000000000	0.35600500000000	0.00000000000000	-0.06658200000000	0.00000000000000	18.61970000000000	0.00000000000000	0.00000000000000	10.67500500000000	0.00000000000000	
17.71660200000000	-59.05840800000000	737.53763000000004	45.91611300000000	0.06431800000000	0.00000000000000	0.11826600000000	1.32079300000000	146.19422200000000	13.82898200000000	0.35715100000000	0.00000000000000	-0.06686400000000	0.00000000000000	18.64128800000000	0.00000000000000	0.00000000000000	10.78763700000000	0.00000000000000	
17.71827100000000	-59.85568400000000	732.31563300000005	45.23767100000000	0.06356600000000	0.00000000000000	0.11805700000000	2.32047600000000	152.76696600000000	13.71547700000000	0.35823300000000	0.00000000000000	-0.06714100000000	0.00000000000000	18.66292200000000	0.00000000000000	0.00000000000000	10.89069400000000	0.00000000000000	
17.71993000000000	-60.65088900000000	726.93471799999998	44.53965900000000	0.06281800000000	0.00000000000000	0.11784700000000	3.35747200000000	159.52692099999999	13.57919900000000	0.35925400000000	0.00000000000000	-0.06741200000000	0.00000000000000	18.68431900000000	0.00000000000000	0.00000000000000	10.98312700000000	0.00000000000000	
17.72161000000000	-61.44221200000000	721.39405799999997	43.82261700000000	0.06207400000000	0.00000000000000	0.11763400000000	4.43338500000000	166.46416500000001	13.41730300000000	0.36021800000000	0.00000000000000	-0.06767900000000	0.00000000000000	18.70517700000000	0.00000000000000	0.00000000000000	11.06309400000000	0.00000000000000	
17.72327000000000	-62.22776200000000	715.69293700000003	43.08712500000000	0.06133300000000	0.00000000000000	0.11742000000000	5.55031300000000	173.56423599999999	13.22615600000000	0.36112500000000	0.00000000000000	-0.06794200000000	0.00000000000000	18.72517500000000	0.00000000000000	0.00000000000000	11.12822400000000	0.00000000000000	
17.72493200000000	-63.00556500000000	709.83076400000004	42.33380100000000	0.06059500000000	0.00000000000000	0.11720500000000	6.71048400000000	180.80983200000000	13.00174800000000	0.36197800000000	0.00000000000000	-0.06820100000000	0.00000000000000	18.74397700000000	0.00000000000000	0.00000000000000	11.17586800000000	0.00000000000000	
